<?xml version="1.0" encoding="utf-8"?>
<!-- Generator: Adobe Illustrator 25.4.1, SVG Export Plug-In . SVG Version: 6.00 Build 0)  -->
<svg version="1.1" id="Layer_1" xmlns="http://www.w3.org/2000/svg" xmlns:xlink="http://www.w3.org/1999/xlink" x="0px" y="0px"
	 viewBox="0 0 5000 5000" style="enable-background:new 0 0 5000 5000;" xml:space="preserve">
<style type="text/css">
	.st0{fill:#FFFFFF;}
	.st1{fill:#2D2D87;}
</style>
<rect x="0" y="0" class="st0" width="5000" height="5000"/>
<g>
	<g>
		<path class="st1" d="M1914.77,1987.23v-666.91c0-91.34-37.1-173.78-96.76-233.66c-59.87-59.88-142.52-96.76-233.65-96.76h-456.05
			v210.66c0,217.39,88.09,413.73,230.19,556.27C1500.82,1899.15,1697.6,1987.23,1914.77,1987.23z"/>
		<path class="st1" d="M3085.02,3024.92v654.98c0,91.34,37.1,173.78,96.76,233.44c59.87,59.88,142.54,96.76,233.65,96.76h456.26
			v-198.73c0-217.39-88.07-413.73-230.41-556.05C3499.18,3113,3302.19,3024.92,3085.02,3024.92z"/>
		<path class="st1" d="M3871.69,989.9v2690c0-217.39-88.07-413.73-230.41-556.27c-142.1-142.1-339.09-230.4-556.26-230.4H1914.77
			v786.67c0,182.46-147.95,330.2-330.41,330.2h-456.05V1320.32c0,217.39,88.09,413.73,230.19,556.27
			c142.31,142.11,339.1,230.19,556.26,230.19h1170.25v-786.45c0-182.46,147.95-330.42,330.41-330.42H3871.69z"/>
	</g>
</g>
</svg>
